# xmcd CD database file
#
# Track frame offsets:
#	150
#	23876
#	37218
#	51849
#	68889
#	79842
#	97642
#	111620
#	126062
#	140704
#	161519
#
# Disc length: 2364 seconds
#
# Revision: 2
# Processed by: cddbd v1.5.2PL0 Copyright (c) Steve Scherf et al.
# Submitted via: CDex 1.79
#
DISCID=98093a0b
DTITLE=Martina Fiserova - SHIFT
DYEAR=2015
DGENRE=Blues
TTITLE0=Martina Fiserova - Silver Steams
TTITLE1=Martina Fiserova - Crater
TTITLE2=Martina Fiserova - Song for Brian
TTITLE3=Martina Fiserova - Cold
TTITLE4=Martina Fiserova - Misunderstanding
TTITLE5=Martina Fiserova - Invisible Blood
TTITLE6=Martina Fiserova - And Fly!
TTITLE7=Martina Fiserova - My Wind
TTITLE8=Martina Fiserova - Chasm
TTITLE9=Martina Fiserova - Silver Moon
TTITLE10=Martina Fiserova - Closer
EXTD=YEAR: 2015
EXTT0=
EXTT1=
EXTT2=
EXTT3=
EXTT4=
EXTT5=
EXTT6=
EXTT7=
EXTT8=
EXTT9=
EXTT10=
PLAYORDER=
